<svg xmlns="http://www.w3.org/2000/svg" width="128" height="189" viewBox="0 0 128 189"><rect width="100%" height="100%" fill="#DDDDDD"/><path fill="#999999" d="M31.705 89.8h1.54v9.4h-.9q-.2 0-.34-.07t-.27-.23l-4.91-6.27q.04.43.04.8v5.77h-1.54v-9.4h.91q.11 0 .2.01.08.01.14.04.06.03.12.08.06.06.13.15l4.93 6.29-.04-.45q-.01-.22-.01-.41V89.8Zm12.6 4.7q0 1.03-.34 1.91-.34.89-.97 1.53-.62.64-1.5 1t-1.95.36q-1.07 0-1.94-.36-.88-.36-1.51-1t-.97-1.53q-.34-.88-.34-1.91 0-1.03.34-1.91.34-.88.97-1.53.63-.64 1.51-1 .87-.36 1.94-.36.71 0 1.35.16.63.17 1.15.47.53.3.95.74.42.43.71.96t.45 1.16q.15.62.15 1.31Zm-1.79 0q0-.77-.21-1.39-.21-.61-.59-1.04-.38-.43-.93-.66-.55-.22-1.24-.22t-1.24.22q-.55.23-.93.66-.39.43-.6 1.04-.21.62-.21 1.39 0 .77.21 1.39.21.61.6 1.04.38.42.93.65.55.23 1.24.23t1.24-.23q.55-.23.93-.65.38-.43.59-1.04.21-.62.21-1.39Zm9.89-4.7v1.44h-2.83v7.96h-1.75v-7.96h-2.83V89.8h7.41Zm10.33 1.39h-4.18v2.78h3.53v1.4h-3.53v3.83h-1.75v-9.4h5.93v1.39Zm10.39 3.31q0 1.03-.34 1.91-.34.89-.97 1.53-.62.64-1.5 1t-1.95.36q-1.06 0-1.94-.36-.88-.36-1.51-1-.62-.64-.97-1.53-.34-.88-.34-1.91 0-1.03.34-1.91.35-.88.97-1.53.63-.64 1.51-1t1.94-.36q.72 0 1.35.16.63.17 1.15.47.53.3.95.74.42.43.71.96t.45 1.16q.15.62.15 1.31Zm-1.79 0q0-.77-.21-1.39-.2-.61-.59-1.04-.38-.43-.93-.66-.55-.22-1.24-.22t-1.24.22q-.55.23-.93.66-.39.43-.6 1.04-.21.62-.21 1.39 0 .77.21 1.39.21.61.6 1.04.38.42.93.65.55.23 1.24.23t1.24-.23q.55-.23.93-.65.39-.43.59-1.04.21-.62.21-1.39Zm7.11 3.29q.51 0 .91-.17t.67-.47q.28-.31.42-.75.15-.43.15-.97V89.8h1.75v5.63q0 .84-.27 1.55-.27.71-.78 1.23-.5.52-1.22.8-.72.29-1.63.29-.91 0-1.63-.29-.72-.28-1.22-.8-.51-.52-.78-1.23t-.27-1.55V89.8h1.75v5.62q0 .54.15.98.14.43.42.74.28.31.68.48.4.17.9.17Zm12.26-7.99h1.54v9.4h-.9q-.21 0-.35-.07-.14-.07-.27-.23l-4.91-6.27q.04.43.04.8v5.77h-1.54v-9.4h.92q.11 0 .19.01t.14.04q.07.03.12.08.06.06.13.15l4.93 6.29q-.02-.23-.03-.45-.01-.22-.01-.41V89.8Zm11.97 4.7q0 1.03-.34 1.9-.34.86-.97 1.49-.62.62-1.5.97-.88.34-1.95.34h-3.58v-9.4h3.58q1.07 0 1.95.35.88.35 1.5.97.63.62.97 1.48.34.87.34 1.9Zm-1.79 0q0-.77-.2-1.39-.21-.61-.6-1.04-.38-.42-.93-.65-.55-.23-1.24-.23h-1.83v6.62h1.83q.69 0 1.24-.23t.93-.65q.39-.43.6-1.04.2-.62.2-1.39Z"/></svg>